<svg id="Layer_1" enable-background="new 0 0 464.002 464.002" height="512" viewBox="0 0 464.002 464.002" width="512" xmlns="http://www.w3.org/2000/svg"><g><path d="m410.152 433.001-119.39-110.67 19.3-26.98-61.23 14.8-7.69 1.86-22.71 50.32s-35.8 25.09-73.43 49.01c-18.26 11.61-36.95 22.94-52.19 30.99-46.66 24.67-81.33-8-35.64-86 45.7-78 55.64-102 62.98-213.33 7.33-111.33 76.82-119.06 76.82-119.06 46.62-29.09 81.96-27.3 106.2-17.44v.01c22.27 9.06 35.17 24.94 38.82 29.93 59.44 20.66 71.73 74.91 71.73 74.91s23.76 89.05-16.24 166.02c-40 76.96 12.67 155.63 12.67 155.63z" fill="#52528c"/><path d="m248.832 310.151-7.69 1.86-22.71 50.32s-35.8 25.09-73.43 49.01c-.46-7.66.52-17.15 3.33-28.68 27.34-112.34 12-153.4 12-153.4l69.8-12.58s8.31 34.44 18.7 93.47z" fill="#404077"/><path d="m361.981 349.486-185.742.435s-95.208 31.528-104.873 114.082h356.9c-6.212-71.45-66.285-114.517-66.285-114.517z" fill="#c5c5fe"/><path d="m321.933 262.512s3.908 47.069 15.9 76.36c-49.599 74.845-114.336 34.952-136.075-3.838 4.818-8.842 21.289-42.823 23.249-97.521l-4.339-112.465c33.223 1.225 101.126-2.24 128.084-47.582 83.289 85.857 15.771 176.204-26.819 185.046z" fill="#ffebd4"/><path d="m306.543 438.262-37.206 3.621c-1.928 7.595-3.442 14.981-4.609 22.119l52.065-.002c-7.241-15.759-10.25-25.738-10.25-25.738z" fill="#baedfe"/><path d="m315.166 406.764s-2.796 17.818-8.624 31.498c0 0-8.517 10.461-37.206 3.621 0 0-12.897-9.342-18.552-30.22-5.654-20.878 23.483-39.118 23.483-39.118h10.147l21.231 8.715z" fill="#9ae1ff"/><path d="m284.415 372.544s23.268 20.703 38.461 62.374c13.541 37.139 81.94-90.416 5.675-128.058 0 0-3.237 44.394-44.136 65.684z" fill="#a3a3f5"/><path d="m284.415 372.544s-19.089 13.724-34.598 59.491c-17.767 52.432-69.19 10.125-73.971-84.83 0 0 7.471-24.704 38.66-43.904-.001 0 15.921 38.253 69.909 69.243z" fill="#a3a3f5"/><path d="m303.176 6.502v.01c-116.67 8.84-96.41 132.26-96.41 132.26s-26.93 95.95-29.81 0c-2.89-95.94 20.02-114.83 20.02-114.83 46.621-29.09 81.961-27.3 106.2-17.44z" fill="#baedfe"/><g><path d="m264.737 247.671s32.477 22.456 94.225-1.261l14.244 15.282s-53.649 35.767-123.232-.753z" fill="#c5c5fe"/><path d="m249.975 216.681s44.778 57.968-19.058 43.45c-63.835-14.519 19.058-43.45 19.058-43.45z" fill="#52528c"/><path d="m253.522 197.741c0 37.24-26.25 67.43-58.63 67.43-4.59 0-9.06-.61-13.35-1.76-25.95-6.95-45.28-33.71-45.28-65.67 0-31.95 19.33-58.71 45.28-65.66 4.29-1.15 8.76-1.76 13.35-1.76 32.38 0 58.63 30.19 58.63 67.42z" fill="#a3a3f5"/><path d="m226.812 197.741c0 31.95-19.33 58.72-45.27 65.67-25.95-6.95-45.28-33.71-45.28-65.67 0-31.95 19.33-58.71 45.28-65.66 25.94 6.95 45.27 33.71 45.27 65.66z" fill="#c5c5fe"/><ellipse cx="361.625" cy="253.239" fill="#baedfe" rx="31.667" ry="21.282" transform="matrix(.914 -.406 .406 .914 -71.681 168.689)"/></g></g></svg>